P2
# Ignore this line
4 5
1
0 0 0 0
0 1 1 1
0 1 0 0
0 1 1 1
0 0 0 0
